<svg width="20" height="20" viewBox="0 0 20 20" fill="none" xmlns="http://www.w3.org/2000/svg">
<path d="M10.0001 2.91663C9.67759 2.9173 9.36443 3.02483 9.10957 3.22241C8.85472 3.41999 8.67254 3.69647 8.59153 4.0086C8.51052 4.32074 8.53525 4.65092 8.66185 4.9475C8.78846 5.24408 9.00979 5.49034 9.29124 5.64775L7.53749 9.15442L4.36204 5.97896C4.49944 5.75823 4.57533 5.50478 4.58185 5.24486C4.58837 4.98494 4.52528 4.728 4.39912 4.50066C4.27295 4.27331 4.08831 4.08383 3.8643 3.95184C3.64029 3.81985 3.38506 3.75015 3.12506 3.74996C2.77819 3.75142 2.4432 3.87646 2.18022 4.10266C1.91725 4.32885 1.7435 4.64137 1.69019 4.98411C1.63687 5.32686 1.70747 5.67739 1.8893 5.97278C2.07114 6.26817 2.35232 6.48907 2.68235 6.59583L4.02919 13.3333H15.9709L17.3178 6.59745C17.649 6.49162 17.9316 6.2709 18.1144 5.97509C18.2973 5.67929 18.3684 5.32788 18.315 4.98425C18.2616 4.64062 18.0871 4.3274 17.8231 4.10107C17.559 3.87475 17.2228 3.75022 16.8751 3.74996C16.6152 3.75024 16.3601 3.81997 16.1362 3.95191C15.9123 4.08386 15.7278 4.27324 15.6016 4.50046C15.4755 4.72767 15.4123 4.98447 15.4188 5.24427C15.4252 5.50407 15.5009 5.75743 15.6381 5.97815L12.4626 9.15442L10.7097 5.64856C10.9916 5.49131 11.2134 5.24496 11.3403 4.94813C11.4671 4.6513 11.4919 4.32076 11.4108 4.00832C11.3296 3.69587 11.1471 3.41919 10.8918 3.22163C10.6365 3.02407 10.3229 2.9168 10.0001 2.91663ZM4.16673 14.5833V16.0416C4.16673 16.8458 4.82089 17.5 5.62506 17.5H14.3751C15.1792 17.5 15.8334 16.8458 15.8334 16.0416V14.5833H4.16673Z" fill="#DDB660"/>
</svg>
