<svg width="25" height="25" viewBox="0 0 25 25" fill="none" xmlns="http://www.w3.org/2000/svg">
<path d="M7.55192 2.60413C5.97912 2.60413 4.68734 3.89591 4.68734 5.46871V13.3046C3.54085 13.346 2.604 14.2892 2.604 15.4449C2.604 16.1407 2.94081 16.7965 3.50834 17.2007L10.7797 22.3877C11.8065 23.1202 13.1931 23.1202 14.22 22.3877L21.4913 17.2007C22.0575 16.7966 22.3943 16.1414 22.3947 15.4459V15.4449C22.3949 14.2894 21.4585 13.346 20.3123 13.3046V5.46871C20.3123 3.89591 19.0206 2.60413 17.4478 2.60413H7.55192ZM7.55192 4.16663H17.4478C18.176 4.16663 18.7498 4.74047 18.7498 5.46871V14.0706C18.7499 14.2778 18.8322 14.4765 18.9787 14.623C19.1252 14.7695 19.3239 14.8518 19.5311 14.8518H20.2391C20.5762 14.8518 20.8324 15.1081 20.8322 15.4449C20.8322 15.6373 20.741 15.8157 20.5839 15.9281L13.3126 21.1161C12.8239 21.4648 12.1758 21.4648 11.6871 21.1161L4.41573 15.9281C4.41539 15.9281 4.41505 15.9281 4.41471 15.9281C4.25828 15.8167 4.1665 15.6376 4.1665 15.4449C4.1665 15.1078 4.42344 14.8518 4.76058 14.8518H5.46859C5.67578 14.8518 5.87448 14.7695 6.02099 14.623C6.1675 14.4765 6.24982 14.2778 6.24984 14.0706V5.46871C6.24984 4.74047 6.82368 4.16663 7.55192 4.16663ZM12.4998 6.24996C12.104 6.24996 11.7842 6.57129 11.7847 6.96712V7.70056C10.4873 7.79431 9.45622 8.86895 9.45622 10.1898C9.45622 11.5715 10.581 12.6963 11.9627 12.6963H13.216C13.8082 12.6963 14.2902 13.1773 14.2902 13.7695C14.2902 14.3617 13.8082 14.8437 13.216 14.8437H11.8112C11.1461 14.8437 10.7296 14.5678 10.4989 14.3371C10.2192 14.0574 9.76642 14.0574 9.48673 14.3371C9.20705 14.6168 9.20705 15.0706 9.48673 15.3503C10.0779 15.9414 10.8931 16.2662 11.7837 16.2729V16.9921C11.7837 17.3875 12.104 17.7083 12.4998 17.7083C12.8957 17.7083 13.216 17.3875 13.216 16.9921V16.276C14.5978 16.276 15.7215 15.1502 15.7215 13.7685C15.7215 12.3867 14.5967 11.262 13.215 11.262H11.9627C11.3705 11.262 10.8885 10.7809 10.8885 10.1888C10.8885 9.59657 11.3705 9.11454 11.9627 9.11454H13.0634C13.7349 9.11454 14.0437 9.50048 14.0471 9.50212V9.50313C14.2608 9.83487 14.7033 9.92861 15.0358 9.71574C15.3681 9.50116 15.4641 9.05824 15.2495 8.72595C15.0266 8.38116 14.3212 7.74867 13.216 7.69242V6.9661C13.216 6.57079 12.8957 6.24996 12.4998 6.24996Z" fill="white"/>
</svg>
