<svg width="25" height="25" viewBox="0 0 25 25" fill="none" xmlns="http://www.w3.org/2000/svg">
<path d="M10.1562 1.04163C8.58345 1.04163 7.29167 2.33341 7.29167 3.90621V4.94788V6.89185C5.324 7.18004 3.82077 8.45164 2.94189 10.2722C1.94615 12.3348 1.5625 15.0331 1.5625 17.9687V20.5729C1.5625 22.1457 2.85428 23.4375 4.42708 23.4375H9.63542C9.69424 23.438 9.75294 23.4318 9.81038 23.4191C10.713 23.7676 11.6353 23.9583 12.5 23.9583C13.3456 23.9583 14.2196 23.7752 15.0604 23.4375H20.5729C22.1457 23.4375 23.4375 22.1457 23.4375 20.5729V17.9687C23.4375 14.7786 23.0553 12.1946 22.0479 10.2518C21.1476 8.51542 19.6487 7.37848 17.7083 6.94271V4.94788V3.90621C17.7083 2.33341 16.4165 1.04163 14.8437 1.04163H10.1562ZM10.1562 2.60413H14.8437C15.572 2.60413 16.1458 3.17797 16.1458 3.90621V4.94788V7.55204C16.1459 7.74248 16.2155 7.92635 16.3415 8.06909C16.4676 8.21183 16.6415 8.30362 16.8304 8.32719C18.7031 8.56127 19.8448 9.39918 20.6604 10.972C21.476 12.5449 21.875 14.9088 21.875 17.9687V20.5729C21.875 21.3011 21.3012 21.875 20.5729 21.875H17.5242C18.8378 20.6681 19.7975 18.96 19.7998 16.9321L19.8029 14.1906C19.8029 14.1896 19.8029 14.1886 19.8029 14.1876C19.7964 12.1224 18.5319 10.7303 17.3635 9.94666C16.1951 9.16304 15.033 8.87752 15.033 8.87752C14.9572 8.85851 14.879 8.85097 14.801 8.85514C14.6247 8.86491 14.4569 8.93411 14.325 9.05147C13.3356 9.93087 11.7639 10.4434 10.437 10.6903C9.11008 10.9371 8.07292 10.9375 8.07292 10.9375C7.96939 10.936 7.86661 10.9551 7.77054 10.9937C7.67447 11.0323 7.58703 11.0896 7.51331 11.1623C7.43958 11.235 7.38104 11.3216 7.34108 11.4172C7.30112 11.5127 7.28054 11.6152 7.28054 11.7187C7.28054 11.8222 7.30112 11.9247 7.34108 12.0203C7.38104 12.1158 7.43958 12.2024 7.51331 12.2751C7.58703 12.3478 7.67447 12.4051 7.77054 12.4437C7.86661 12.4823 7.96939 12.5014 8.07292 12.5C8.07292 12.5 9.2493 12.5003 10.7218 12.2263C12.0407 11.9809 13.5964 11.4574 14.8875 10.5011C15.0784 10.5552 15.6923 10.7071 16.4937 11.2447C17.4114 11.8601 18.2358 12.7448 18.2404 14.1927L18.2373 16.9301C18.2355 18.5453 17.4545 19.8887 16.3218 20.8638C15.8222 21.2939 15.2531 21.6368 14.6708 21.8923C14.5715 21.9132 14.4771 21.9532 14.3931 22.0103C13.7443 22.2602 13.0887 22.3958 12.5 22.3958C11.2961 22.3958 9.65517 21.8278 8.39132 20.8384C7.12746 19.8489 6.25 18.5038 6.25 16.923V13.802C6.25146 13.6985 6.23234 13.5957 6.19373 13.4997C6.15513 13.4036 6.09782 13.3162 6.02513 13.2424C5.95243 13.1687 5.86581 13.1102 5.7703 13.0702C5.67479 13.0302 5.57229 13.0097 5.46875 13.0097C5.36521 13.0097 5.26271 13.0302 5.1672 13.0702C5.07169 13.1102 4.98507 13.1687 4.91237 13.2424C4.83968 13.3162 4.78237 13.4036 4.74377 13.4997C4.70516 13.5957 4.68604 13.6985 4.6875 13.802V16.923C4.6875 18.9746 5.77893 20.6783 7.20317 21.875H4.42708C3.69884 21.875 3.125 21.3011 3.125 20.5729V17.9687C3.125 15.1751 3.5226 12.6651 4.34977 10.9517C5.17695 9.23827 6.28255 8.33329 8.07292 8.33329C8.28011 8.33327 8.47881 8.25096 8.62532 8.10445C8.77183 7.95794 8.85415 7.75924 8.85417 7.55204V4.94788V3.90621C8.85417 3.17797 9.42801 2.60413 10.1562 2.60413ZM12.4878 3.6346C12.2808 3.63784 12.0835 3.72311 11.9393 3.87169C11.7951 4.02027 11.7158 4.22002 11.7188 4.42704V5.20829H10.6771C10.5736 5.20683 10.4708 5.22595 10.3747 5.26456C10.2786 5.30316 10.1912 5.36048 10.1175 5.43317C10.0437 5.50586 9.9852 5.59248 9.94524 5.68799C9.90528 5.7835 9.88471 5.88601 9.88471 5.98954C9.88471 6.09308 9.90528 6.19558 9.94524 6.29109C9.9852 6.38661 10.0437 6.47323 10.1175 6.54592C10.1912 6.61861 10.2786 6.67592 10.3747 6.71453C10.4708 6.75313 10.5736 6.77226 10.6771 6.77079H11.7188V7.55204C11.7173 7.65557 11.7364 7.75835 11.775 7.85442C11.8136 7.95049 11.8709 8.03793 11.9436 8.11165C12.0163 8.18538 12.1029 8.24392 12.1984 8.28388C12.294 8.32384 12.3965 8.34442 12.5 8.34442C12.6035 8.34442 12.706 8.32384 12.8016 8.28388C12.8971 8.24392 12.9837 8.18538 13.0564 8.11165C13.1291 8.03793 13.1864 7.95049 13.225 7.85442C13.2636 7.75835 13.2827 7.65557 13.2812 7.55204V6.77079H14.3229C14.4264 6.77226 14.5292 6.75313 14.6253 6.71453C14.7214 6.67592 14.8088 6.61861 14.8825 6.54592C14.9563 6.47323 15.0148 6.38661 15.0548 6.29109C15.0947 6.19558 15.1153 6.09308 15.1153 5.98954C15.1153 5.88601 15.0947 5.7835 15.0548 5.68799C15.0148 5.59248 14.9563 5.50586 14.8825 5.43317C14.8088 5.36048 14.7214 5.30316 14.6253 5.26456C14.5292 5.22595 14.4264 5.20683 14.3229 5.20829H13.2812V4.42704C13.2827 4.32248 13.2632 4.21867 13.2239 4.12179C13.1845 4.0249 13.1261 3.9369 13.0521 3.863C12.9781 3.7891 12.8901 3.73081 12.7931 3.69157C12.6962 3.65234 12.5924 3.63297 12.4878 3.6346ZM9.375 14.0625C9.09873 14.0625 8.83378 14.1722 8.63843 14.3676C8.44308 14.5629 8.33333 14.8279 8.33333 15.1041C8.33333 15.3804 8.44308 15.6453 8.63843 15.8407C8.83378 16.036 9.09873 16.1458 9.375 16.1458C9.65127 16.1458 9.91622 16.036 10.1116 15.8407C10.3069 15.6453 10.4167 15.3804 10.4167 15.1041C10.4167 14.8279 10.3069 14.5629 10.1116 14.3676C9.91622 14.1722 9.65127 14.0625 9.375 14.0625ZM15.1042 14.0625C14.8279 14.0625 14.5629 14.1722 14.3676 14.3676C14.1722 14.5629 14.0625 14.8279 14.0625 15.1041C14.0625 15.3804 14.1722 15.6453 14.3676 15.8407C14.5629 16.036 14.8279 16.1458 15.1042 16.1458C15.3804 16.1458 15.6454 16.036 15.8407 15.8407C16.0361 15.6453 16.1458 15.3804 16.1458 15.1041C16.1458 14.8279 16.0361 14.5629 15.8407 14.3676C15.6454 14.1722 15.3804 14.0625 15.1042 14.0625Z" fill="white"/>
</svg>
