<svg width="25" height="25" viewBox="0 0 25 25" fill="none" xmlns="http://www.w3.org/2000/svg">
<path d="M12.4999 2.08337C7.61932 2.08337 3.64575 6.05694 3.64575 10.9375C3.64575 13.1286 4.44956 15.138 5.76978 16.683L5.77384 16.6871L5.7769 16.6911C5.7769 16.6911 9.54353 20.9891 10.8845 22.2687C11.7825 23.1249 13.2163 23.1249 14.1143 22.2687C15.6428 20.8108 19.224 16.6891 19.224 16.6891L19.226 16.686L19.229 16.683C20.5504 15.138 21.3541 13.1286 21.3541 10.9375C21.3541 6.05694 17.3805 2.08337 12.4999 2.08337ZM12.4999 3.64587C16.536 3.64587 19.7916 6.90147 19.7916 10.9375C19.7916 12.7475 19.132 14.392 18.0409 15.6678C18.0338 15.6759 14.3697 19.8664 13.036 21.1385C12.7267 21.4334 12.2721 21.4334 11.9628 21.1385C10.8481 20.0749 6.96924 15.6806 6.95793 15.6678L6.95691 15.6667C5.86728 14.3911 5.20825 12.747 5.20825 10.9375C5.20825 6.90147 8.46385 3.64587 12.4999 3.64587ZM12.4999 7.81254C11.5234 7.81254 10.692 8.20688 10.1582 8.80741C9.6244 9.40795 9.37492 10.178 9.37492 10.9375C9.37492 11.6971 9.6244 12.4671 10.1582 13.0677C10.692 13.6682 11.5234 14.0625 12.4999 14.0625C13.4765 14.0625 14.3078 13.6682 14.8416 13.0677C15.3754 12.4671 15.6249 11.6971 15.6249 10.9375C15.6249 10.178 15.3754 9.40795 14.8416 8.80741C14.3078 8.20688 13.4765 7.81254 12.4999 7.81254ZM12.4999 9.37504C13.0859 9.37504 13.4264 9.56664 13.6738 9.84501C13.9213 10.1234 14.0624 10.5252 14.0624 10.9375C14.0624 11.3499 13.9213 11.7517 13.6738 12.0301C13.4264 12.3084 13.0859 12.5 12.4999 12.5C11.914 12.5 11.5735 12.3084 11.326 12.0301C11.0786 11.7517 10.9374 11.3499 10.9374 10.9375C10.9374 10.5252 11.0786 10.1234 11.326 9.84501C11.5735 9.56664 11.914 9.37504 12.4999 9.37504Z" fill="white"/>
</svg>
