<svg width="25" height="25" viewBox="0 0 25 25" fill="none" xmlns="http://www.w3.org/2000/svg">
<path d="M5.98958 3.125C4.41678 3.125 3.125 4.41678 3.125 5.98958V19.0104C3.125 20.5832 4.41678 21.875 5.98958 21.875H19.0104C20.5832 21.875 21.875 20.5832 21.875 19.0104V5.98958C21.875 4.41678 20.5832 3.125 19.0104 3.125H5.98958ZM5.98958 4.6875H19.0104C19.7387 4.6875 20.3125 5.26134 20.3125 5.98958V19.0104C20.3125 19.7387 19.7387 20.3125 19.0104 20.3125H5.98958C5.26134 20.3125 4.6875 19.7387 4.6875 19.0104V5.98958C4.6875 5.26134 5.26134 4.6875 5.98958 4.6875ZM12.5092 7.34558C12.3618 7.3438 12.2169 7.38373 12.0913 7.46077C11.9656 7.53781 11.8644 7.64882 11.7991 7.78096L10.5601 10.2915L7.7891 10.6944C7.64482 10.7153 7.50927 10.7762 7.39779 10.8701C7.2863 10.9641 7.20332 11.0873 7.15824 11.226C7.11315 11.3646 7.10776 11.5131 7.14266 11.6547C7.17757 11.7962 7.25138 11.9252 7.35575 12.027L9.36076 13.9811L8.88774 16.7409C8.86308 16.8846 8.8791 17.0323 8.93398 17.1673C8.98887 17.3023 9.08043 17.4193 9.19832 17.505C9.31621 17.5907 9.45572 17.6418 9.60109 17.6524C9.74646 17.6629 9.8919 17.6326 10.021 17.5649L12.5 16.2618L14.979 17.5649C15.1081 17.6326 15.2535 17.6629 15.3989 17.6524C15.5443 17.6418 15.6838 17.5907 15.8017 17.505C15.9196 17.4193 16.0111 17.3023 16.066 17.1673C16.1209 17.0323 16.1369 16.8846 16.1123 16.7409L15.6392 13.9811L17.6442 12.027C17.7486 11.9252 17.8224 11.7962 17.8573 11.6547C17.8922 11.5131 17.8868 11.3646 17.8418 11.226C17.7967 11.0873 17.7137 10.9641 17.6022 10.8701C17.4907 10.7762 17.3552 10.7153 17.2109 10.6944L14.4399 10.2915L13.2009 7.78096C13.137 7.65161 13.0386 7.54246 12.9165 7.46561C12.7944 7.38876 12.6534 7.34722 12.5092 7.34558ZM12.5 9.89278L13.2202 11.3515C13.2763 11.465 13.3591 11.5632 13.4615 11.6377C13.5639 11.7121 13.6829 11.7605 13.8082 11.7788L15.4195 12.0127L14.2537 13.149C14.1632 13.2375 14.0955 13.3468 14.0565 13.4673C14.0175 13.5878 14.0084 13.7159 14.0299 13.8407L14.3046 15.446L12.8632 14.6881C12.7511 14.6293 12.6265 14.5986 12.5 14.5986C12.3735 14.5986 12.2489 14.6293 12.1368 14.6881L10.6954 15.446L10.9701 13.8407C10.9916 13.7159 10.9825 13.5878 10.9435 13.4673C10.9045 13.3468 10.8368 13.2375 10.7463 13.149L9.58048 12.0127L11.1918 11.7788C11.3171 11.7605 11.4361 11.7121 11.5385 11.6377C11.6409 11.5632 11.7237 11.465 11.7798 11.3515L12.5 9.89278Z" fill="white"/>
</svg>
