<svg width="25" height="25" viewBox="0 0 25 25" fill="none" xmlns="http://www.w3.org/2000/svg">
<path d="M12.5002 2.08228C6.75657 2.08228 2.0835 6.75534 2.0835 12.4989C2.0835 14.2048 2.53282 15.7994 3.26147 17.221L2.13232 21.2636C1.86933 22.2029 2.79804 23.1315 3.73755 22.8688L7.78316 21.7397C9.20367 22.4668 10.7959 22.9156 12.5002 22.9156C18.2438 22.9156 22.9168 18.2425 22.9168 12.4989C22.9168 6.75534 18.2438 2.08228 12.5002 2.08228ZM12.5002 3.64478C17.3993 3.64478 21.3543 7.59983 21.3543 12.4989C21.3543 17.3981 17.3993 21.3531 12.5002 21.3531C10.9368 21.3531 9.47443 20.9466 8.19922 20.2362C8.01947 20.136 7.80745 20.1108 7.60921 20.166L3.76196 21.2392L4.83618 17.394C4.89168 17.1954 4.86645 16.983 4.76599 16.8029C4.05415 15.5268 3.646 14.0638 3.646 12.4989C3.646 7.59983 7.60105 3.64478 12.5002 3.64478ZM12.5093 6.82471C12.362 6.82293 12.2171 6.86286 12.0914 6.9399C11.9658 7.01694 11.8645 7.12794 11.7993 7.26009L10.5603 9.77067L7.78927 10.1735C7.64499 10.1944 7.50944 10.2553 7.39795 10.3493C7.28647 10.4432 7.20349 10.5665 7.1584 10.7051C7.11332 10.8438 7.10792 10.9923 7.14282 11.1338C7.17773 11.2754 7.25154 11.4043 7.35592 11.5061L9.36092 13.4602L8.8879 16.2201C8.86324 16.3637 8.87926 16.5114 8.93415 16.6464C8.98903 16.7815 9.08059 16.8984 9.19848 16.9842C9.31637 17.0699 9.45588 17.1209 9.60126 17.1315C9.74663 17.1421 9.89206 17.1118 10.0211 17.044L12.5002 15.7409L14.9792 17.044C15.1083 17.1118 15.2537 17.1421 15.3991 17.1315C15.5444 17.1209 15.684 17.0699 15.8018 16.9842C15.9197 16.8984 16.0113 16.7815 16.0662 16.6464C16.1211 16.5114 16.1371 16.3637 16.1124 16.2201L15.6394 13.4602L17.6444 11.5061C17.7488 11.4043 17.8226 11.2754 17.8575 11.1338C17.8924 10.9923 17.887 10.8438 17.8419 10.7051C17.7968 10.5665 17.7139 10.4432 17.6024 10.3493C17.4909 10.2553 17.3553 10.1944 17.2111 10.1735L14.4401 9.77067L13.2011 7.26009C13.1372 7.13073 13.0388 7.02158 12.9167 6.94473C12.7946 6.86789 12.6536 6.82634 12.5093 6.82471ZM12.5002 9.37191L13.2204 10.8306C13.2764 10.9442 13.3592 11.0424 13.4617 11.1168C13.5641 11.1912 13.6831 11.2396 13.8084 11.2579L15.4197 11.4919L14.2539 12.6281C14.1633 12.7167 14.0956 12.8259 14.0567 12.9464C14.0177 13.0669 14.0086 13.1951 14.0301 13.3199L14.3048 14.9251L12.8633 14.1672C12.7513 14.1084 12.6267 14.0777 12.5002 14.0777C12.3736 14.0777 12.249 14.1084 12.137 14.1672L10.6956 14.9251L10.9702 13.3199C10.9918 13.1951 10.9827 13.0669 10.9437 12.9464C10.9047 12.8259 10.837 12.7167 10.7464 12.6281L9.58065 11.4919L11.192 11.2579C11.3173 11.2396 11.4362 11.1912 11.5387 11.1168C11.6411 11.0424 11.7239 10.9442 11.7799 10.8306L12.5002 9.37191Z" fill="white"/>
</svg>
