<svg width="24" height="25" viewBox="0 0 24 25" fill="none" xmlns="http://www.w3.org/2000/svg">
<path d="M5.75 0C2.58324 0 0 2.69088 0 5.98958C0 9.28828 2.58324 11.9792 5.75 11.9792C8.91676 11.9792 11.5 9.28828 11.5 5.98958C11.5 2.69088 8.91676 0 5.75 0ZM5.75 1.5625C8.1061 1.5625 10 3.53532 10 5.98958C10 8.44385 8.1061 10.4167 5.75 10.4167C3.3939 10.4167 1.5 8.44385 1.5 5.98958C1.5 3.53532 3.3939 1.5625 5.75 1.5625ZM5.73828 2.59298C5.53954 2.59621 5.35016 2.68148 5.21173 2.83007C5.0733 2.97865 4.99715 3.17839 5 3.38542V5.98958C5.00004 6.19677 5.07907 6.39546 5.21973 6.54195L6.21973 7.58362C6.28884 7.6586 6.37161 7.71845 6.46321 7.75969C6.5548 7.80093 6.65338 7.82271 6.75316 7.82377C6.85294 7.82483 6.95192 7.80513 7.0443 7.76585C7.13668 7.72656 7.22061 7.66846 7.29117 7.59496C7.36172 7.52147 7.41749 7.43404 7.45521 7.33781C7.49293 7.24158 7.51183 7.13848 7.51082 7.03454C7.5098 6.9306 7.48889 6.82792 7.4493 6.73251C7.40972 6.6371 7.35225 6.55087 7.28027 6.47888L6.5 5.6661V3.38542C6.50144 3.28085 6.48271 3.17705 6.44493 3.08016C6.40715 2.98327 6.35108 2.89527 6.28005 2.82137C6.20901 2.74747 6.12446 2.68918 6.0314 2.64995C5.93834 2.61072 5.83866 2.59134 5.73828 2.59298ZM11.9102 3.125C12.1222 3.61875 12.2819 4.14167 12.3799 4.6875H17.75C18.715 4.6875 19.5 5.50521 19.5 6.51042V7.29167H12.3799C12.2814 7.8375 12.1217 8.36042 11.9102 8.85417H19.5V18.4896C19.5 19.4948 18.715 20.3125 17.75 20.3125H6.25C5.285 20.3125 4.5 19.4948 4.5 18.4896V12.8957C3.976 12.7931 3.474 12.6267 3 12.4064V18.4896C3 20.3562 4.458 21.875 6.25 21.875H17.75C19.542 21.875 21 20.3562 21 18.4896V6.51042C21 4.64375 19.542 3.125 17.75 3.125H11.9102ZM12 10.9375C11.6685 10.9375 11.3505 11.0747 11.1161 11.3189C10.8817 11.5631 10.75 11.8942 10.75 12.2396C10.75 12.5849 10.8817 12.9161 11.1161 13.1603C11.3505 13.4045 11.6685 13.5417 12 13.5417C12.3315 13.5417 12.6495 13.4045 12.8839 13.1603C13.1183 12.9161 13.25 12.5849 13.25 12.2396C13.25 11.8942 13.1183 11.5631 12.8839 11.3189C12.6495 11.0747 12.3315 10.9375 12 10.9375ZM16.25 10.9375C15.9185 10.9375 15.6005 11.0747 15.3661 11.3189C15.1317 11.5631 15 11.8942 15 12.2396C15 12.5849 15.1317 12.9161 15.3661 13.1603C15.6005 13.4045 15.9185 13.5417 16.25 13.5417C16.5815 13.5417 16.8995 13.4045 17.1339 13.1603C17.3683 12.9161 17.5 12.5849 17.5 12.2396C17.5 11.8942 17.3683 11.5631 17.1339 11.3189C16.8995 11.0747 16.5815 10.9375 16.25 10.9375ZM7.75 15.625C7.41848 15.625 7.10054 15.7622 6.86612 16.0064C6.6317 16.2506 6.5 16.5817 6.5 16.9271C6.5 17.2724 6.6317 17.6036 6.86612 17.8478C7.10054 18.092 7.41848 18.2292 7.75 18.2292C8.08152 18.2292 8.39946 18.092 8.63388 17.8478C8.8683 17.6036 9 17.2724 9 16.9271C9 16.5817 8.8683 16.2506 8.63388 16.0064C8.39946 15.7622 8.08152 15.625 7.75 15.625ZM12 15.625C11.6685 15.625 11.3505 15.7622 11.1161 16.0064C10.8817 16.2506 10.75 16.5817 10.75 16.9271C10.75 17.2724 10.8817 17.6036 11.1161 17.8478C11.3505 18.092 11.6685 18.2292 12 18.2292C12.3315 18.2292 12.6495 18.092 12.8839 17.8478C13.1183 17.6036 13.25 17.2724 13.25 16.9271C13.25 16.5817 13.1183 16.2506 12.8839 16.0064C12.6495 15.7622 12.3315 15.625 12 15.625Z" fill="white"/>
</svg>
