<svg width="12" height="12" viewBox="0 0 12 12" fill="none" xmlns="http://www.w3.org/2000/svg">
<path d="M3.25 11H2.5C1.94775 11 1.5 10.5522 1.5 9.99997V5.74997C1.5 5.19772 1.94775 4.74997 2.5 4.74997H4.25V9.99997C4.25 10.5522 3.80225 11 3.25 11ZM10.1657 5.39222C9.927 5.13997 9.59725 5.00072 9.23675 4.99997H7.375C7.375 4.99997 7.6475 3.90572 7.74125 3.53872C7.88275 2.98347 7.91125 2.51622 7.83025 2.06822C7.78825 1.83547 7.7135 1.53422 7.5075 1.26747C7.36125 1.07797 7.17825 0.954715 6.96325 0.900715C6.64325 0.820965 6.45125 0.923215 6.33625 1.24397C6.32675 1.26997 5.92475 2.68547 5.92475 2.68547C5.89325 2.79722 5.863 2.88622 5.81675 2.95797C5.51975 3.42097 5.16075 3.87121 4.74975 4.33021V10.3695C5.86475 10.688 7.54125 10.9797 7.6555 10.9905C7.7205 10.997 7.785 11 7.849 11C8.751 11 9.54425 10.3922 9.7765 9.49547C9.986 8.68597 10.4178 6.74997 10.4178 6.74997C10.4523 6.62222 10.4915 6.47747 10.5 6.31947C10.5188 5.96922 10.4 5.64022 10.1657 5.39222Z" fill="white"/>
</svg>
