<svg width="22" height="22" viewBox="0 0 22 22" fill="none" xmlns="http://www.w3.org/2000/svg">
<path d="M10.9999 1.8324C5.94555 1.8324 1.83325 5.9447 1.83325 10.9991C1.83325 12.5003 2.22866 13.9034 2.86987 15.1545L1.87622 18.712C1.64478 19.5385 2.46205 20.3557 3.28882 20.1246L6.84896 19.1309C8.09901 19.7708 9.50014 20.1657 10.9999 20.1657C16.0543 20.1657 20.1666 16.0534 20.1666 10.9991C20.1666 5.9447 16.0543 1.8324 10.9999 1.8324ZM7.33325 7.79163H10.9999C11.7594 7.79163 12.3749 8.40717 12.3749 9.16663V12.8333C12.3749 13.5928 11.7594 14.2083 10.9999 14.2083H7.33325C6.57379 14.2083 5.95825 13.5928 5.95825 12.8333V9.16663C5.95825 8.40717 6.57379 7.79163 7.33325 7.79163ZM15.3219 8.25265C15.4439 8.24692 15.5676 8.27273 15.6799 8.33232C15.9045 8.45148 16.0416 8.68538 16.0416 8.93746V13.0625C16.0416 13.3145 15.9045 13.5484 15.6799 13.6676C15.5791 13.7226 15.4641 13.75 15.3541 13.75C15.2212 13.75 15.0882 13.7133 14.9736 13.6354L13.2916 12.5128V9.4871L14.9736 8.36454C15.0791 8.29579 15.1998 8.25837 15.3219 8.25265Z" fill="#4246B4"/>
</svg>
